<svg xmlns="http://www.w3.org/2000/svg" viewBox="0 0 640 360">
  <rect width="640" height="360" fill="#ffffff"/>
  <line x1="320" y1="48" x2="320" y2="292" stroke="#111827" stroke-width="2" stroke-dasharray="6 6"/>
  <line x1="112" y1="292" x2="584" y2="292" stroke="#111827" stroke-width="3"/>
  <text x="348" y="334" font-family="Arial" font-size="20" text-anchor="middle">SHAP value</text>
  <text x="80" y="92" font-family="Arial" font-size="18" text-anchor="end">feature A</text>
  <text x="80" y="164" font-family="Arial" font-size="18" text-anchor="end">feature B</text>
  <text x="80" y="236" font-family="Arial" font-size="18" text-anchor="end">feature C</text>
  <g fill="#dc2626"><circle cx="455" cy="82" r="8"/><circle cx="488" cy="98" r="8"/><circle cx="522" cy="76" r="8"/><circle cx="430" cy="106" r="8"/></g>
  <g fill="#2563eb"><circle cx="210" cy="90" r="8"/><circle cx="246" cy="74" r="8"/><circle cx="264" cy="110" r="8"/></g>
  <g fill="#dc2626"><circle cx="376" cy="154" r="8"/><circle cx="402" cy="172" r="8"/></g>
  <g fill="#2563eb"><circle cx="284" cy="156" r="8"/><circle cx="254" cy="176" r="8"/></g>
  <g fill="#64748b"><circle cx="300" cy="232" r="8"/><circle cx="316" cy="250" r="8"/><circle cx="335" cy="224" r="8"/><circle cx="348" cy="244" r="8"/></g>
  <text x="440" y="42" font-family="Arial" font-size="17" fill="#dc2626">pushes prediction up</text>
</svg>
